PathFileType	4	(X/Y/Z)	path1_02_0-1346.trc
DataRate	CameraRate	NumFrames	NumMarkers	Units	OrigDataRate	OrigDataStartFrame	OrigNumFrames
30	30	8	22	m	30	168	1346
Frame#	Time	Hip			RHip			RKnee			RAnkle			RBigToe			RSmallToe			RHeel			LHip			LKnee			LAnkle			LBigToe			LSmallToe			LHeel			Neck			Head			Nose			RShoulder			RElbow			RWrist			LShoulder			LElbow			LWrist		
		X1	Y1	Z1	X2	Y2	Z2	X3	Y3	Z3	X4	Y4	Z4	X5	Y5	Z5	X6	Y6	Z6	X7	Y7	Z7	X8	Y8	Z8	X9	Y9	Z9	X10	Y10	Z10	X11	Y11	Z11	X12	Y12	Z12	X13	Y13	Z13	X14	Y14	Z14	X15	Y15	Z15	X16	Y16	Z16	X17	Y17	Z17	X18	Y18	Z18	X19	Y19	Z19	X20	Y20	Z20	X21	Y21	Z21	X22	Y22	Z22
169	5.633333333333334	-1.6468810591568352	0.817786619993843	0.2539609879408529	-1.6485303092231305	0.8017514768031744	0.3417150361709336	-1.67077363948378	0.4713263850964342	0.30852566082567395	-1.7049914404746604	0.11560645987375931	0.3248090770268063	-1.5431293775827388	0.03181179057568744	0.3328734734198333	-1.5737718996468997	0.029244503181678583	0.39052711414905666	-1.7470489476177582	0.05344699556913371	0.3234484776262267	-1.6394032707616462	0.7934646930891928	0.18692876639537884	-1.6559066984982176	0.45089345637592815	0.19900077369491204	-1.6830984626290755	0.10590640499004474	0.18126680490804592	-1.5376916659275004	0.01125009226344205	0.14484537019359675	-1.5535023199739584	0.022886893720104978	0.09514638526712982	-1.750598733822101	0.027598847602424686	0.1862325513907684	-1.629972723817036	1.4509057620714485	0.21973977377179968	-1.560667971631564	1.7212686331495528	0.2566694890712319	-1.499865284850433	1.5820143088607619	0.24219876728107562	-1.6765470240050537	1.3543670312652918	0.3682589384437777	-1.6689509850947777	1.0585143116255857	0.3945549829099077	-1.5741645444703622	0.8614602254047206	0.45841907009195393	-1.6627301887150676	1.3339412229557943	0.11166412439283281	-1.656694406289124	1.0386270701075442	0.10857434172454199	-1.545000814928275	0.8585505192535227	0.06904912993444137
170	5.666666666666667	-1.6465184422043877	0.8175702059530023	0.25380666664680984	-1.64775625467306	0.8006864567850539	0.3423000775345681	-1.6705297097427847	0.47039868462375145	0.30958203464257766	-1.7051167110353027	0.11573285300013814	0.3248216045255681	-1.5430749701505666	0.03174062726099577	0.33350141339060035	-1.5739912961537643	0.029269772129851296	0.39080821022689644	-1.7468365013879332	0.05365726592007484	0.3235951213420458	-1.6396047035626755	0.792051950408089	0.18743907090698522	-1.6616344060331476	0.4523777404060957	0.20477967283318382	-1.6831543381971186	0.10532592573555521	0.18229480660835615	-1.5385778639320087	0.010790930476094128	0.14655259259314818	-1.5549243599356002	0.02206170180675164	0.09464598990632321	-1.750156623983198	0.02798357979859158	0.186068389925007	-1.6290398945964435	1.451228986619334	0.21963335310122095	-1.5611294152051678	1.720615356225911	0.2568549224339449	-1.4990463660966558	1.5823373612843206	0.2418639125524254	-1.6755202180438369	1.3542498042129767	0.3684850907087586	-1.6687753996214862	1.0581933949252158	0.394855147140177	-1.573978905891135	0.8619335547036516	0.45860125810308294	-1.662233977593666	1.3359924946603083	0.09765800664338267	-1.6574487025804419	1.0381674486984398	0.10869057463623695	-1.5449717995397245	0.8578669094512992	0.06940934915718902
171	5.7	-1.646404467727405	0.817326844523755	0.25371600179971404	-1.6472465046481926	0.8007822712304974	0.3427002927093077	-1.6702054474159924	0.4702617888593254	0.310548744432272	-1.7051848278831718	0.11669908513531599	0.32384482550494537	-1.5431576565341123	0.0319489032610323	0.33426104120643874	-1.5742832031654501	0.02941619951504496	0.3910943283662959	-1.746539912034036	0.05379235455445236	0.3236880525336986	-1.6397986712027426	0.7918087432798725	0.18762131009978647	-1.6654008112031093	0.4540394086485175	0.2086429502577191	-1.6833781723228691	0.10490512406677806	0.1824569062320237	-1.538979513356028	0.010844735498958211	0.14668866508075545	-1.5552560547515246	0.02174501110461143	0.09439360713981156	-1.7509247264715946	0.02751168655445857	0.1860916828237155	-1.6284214830990031	1.4511817529015207	0.21933365690150256	-1.560556831032276	1.7208398220543537	0.256988556961286	-1.4984601299152662	1.5822603941452364	0.24092299920666665	-1.6746251151638545	1.3542474539858633	0.3684304181988309	-1.6687508309976855	1.0581241520049243	0.3951933504340388	-1.5737689442933915	0.862287309260314	0.4586857457516118	-1.661670204163607	1.3380153693321863	0.08303463277207916	-1.6577474887354438	1.037634962361655	0.10870613578951127	-1.5447976877148557	0.8570683631864643	0.06975159968871456
172	5.733333333333333	-1.6464822584892036	0.8170112939312757	0.25370317701522954	-1.6470322114710458	0.8018659271834392	0.34275659999405333	-1.6698868483416587	0.47088433136114255	0.3111664120500582	-1.7052398051770923	0.11776108070371363	0.3224186941704824	-1.5434103382170556	0.0323493930966505	0.3348505534208174	-1.5745856063505717	0.029569300860873077	0.39114808094406606	-1.7464056176047176	0.05358050222587801	0.3235362833132546	-1.6400057748382242	0.7925999914632166	0.1874467216299016	-1.6669362185154772	0.4555893676000446	0.21021059444833434	-1.6838057085205347	0.10465704259545436	0.18167236289806366	-1.5389042460801985	0.01133290901020885	0.14493840161616964	-1.5547450604375388	0.02181204972536069	0.09433065852562429	-1.7523608289401422	0.02640799856258533	0.1863080776913351	-1.6281095160159227	1.4508421647784182	0.21896780142406821	-1.5591186901495315	1.7216964379710864	0.25697131583650656	-1.498113976003523	1.5817953947299164	0.23973580810858533	-1.6739155538495814	1.3543579840106057	0.3681313913201415	-1.6687308989578602	1.0583092547960038	0.3955280754333037	-1.573590117281712	0.8624736882593301	0.458654835937904	-1.6611127205558183	1.3394987461569918	0.07132931700895884	-1.657594187761471	1.037110089030387	0.10868145077178684	-1.5444488737266773	0.8563002590897355	0.06991995887791565
173	5.766666666666667	-1.646646193305137	0.816642679587987	0.25374250693187106	-1.6470378425321068	0.8034773350958982	0.34250303858678055	-1.6696392906050173	0.4719922599573007	0.31136155780434066	-1.7053102950782288	0.11839929901176517	0.3209840221650973	-1.5437587581252454	0.032867999691608814	0.3351223166654946	-1.5748186322743027	0.029632241725196462	0.3908526205398284	-1.7466199962937687	0.05288169518568285	0.32302292413241684	-1.6402019068415643	0.7940053881928248	0.18704970255845646	-1.6665778634360942	0.45675898003539156	0.20978624476971994	-1.6847042839109818	0.10448806700260989	0.1799685077100818	-1.5385507102791451	0.012068222337126485	0.14201151239521428	-1.5539389486961286	0.02205653662948942	0.09433426888005296	-1.7536869015138947	0.025087070944582852	0.1866454610701226	-1.6280386484279412	1.4503792501578199	0.21865285550029123	-1.5572341287953029	1.7227989111792148	0.2568351179670871	-1.4979089351720718	1.5811185600465416	0.23854091010455103	-1.6733842717712497	1.3545676409010958	0.36770302546969963	-1.6685798412990394	1.0586892248691593	0.3958190957258271	-1.573492137831512	0.8625187621636412	0.4585477471672824	-1.6606327942982795	1.340322058858891	0.06397841411717896	-1.6571370172257445	1.0366512349489982	0.10863306651017074	-1.543972917943891	0.8556929886286327	0.06984005567306699
174	5.8	-1.6467973696773759	0.816301426528013	0.2537821130363448	-1.6471584882219372	0.8050853480168071	0.34206877422074927	-1.6694842216908268	0.4732250196613694	0.3111583112343416	-1.7054267874570477	0.11842999789585268	0.3197373553607177	-1.5440841886196746	0.03343277816361232	0.33503985319484664	-1.5749187029202174	0.029591178447651585	0.39025921406442865	-1.747221794899963	0.05176102733685829	0.32217337939299157	-1.6403653184404914	0.7955300896412822	0.18658286778899646	-1.6648367609877248	0.4573296590103718	0.20786858595859842	-1.6864337911207796	0.10426807173138292	0.1774383486964181	-1.5381433609083033	0.012868463050633385	0.13894524536086234	-1.5537439678107308	0.0221881356230862	0.0939311600615879	-1.7545352769340945	0.023837781681826233	0.1870538873688181	-1.6281191676531326	1.4499417001850519	0.21843924106370527	-1.5553275152895467	1.7238040745536012	0.2564856271028691	-1.4977062302461706	1.5804424664974945	0.23736786005249866	-1.6730339028777494	1.354873346612442	0.36722976913221245	-1.66823430104797	1.0591432308039375	0.3960448867532877	-1.5734827575677717	0.8624948008460673	0.4584378154509782	-1.660285712754699	1.3405556498542812	0.06119227998761308	-1.6565533281504625	1.0362835525713856	0.10856561092892797	-1.5434703343492555	0.8553192318365687	0.06957625526412402
175	5.833333333333333	-1.6468742202960513	0.8160549149178875	0.25377531367086315	-1.6473153139130325	0.8062041742523196	0.34155736073074366	-1.6694240075992837	0.4742187636761653	0.3105917135263306	-1.7056360828415595	0.11786593117863207	0.318693484894083	-1.544287431457086	0.033906710226561936	0.33463287786945217	-1.5748683273368491	0.02947800463334027	0.3895266146195655	-1.7481132268450206	0.05045308199257049	0.32112724431642253	-1.6404887692489496	0.7966887098548661	0.18613946457450553	-1.6622517432741417	0.45714372182847074	0.20496090330935698	-1.689053411750268	0.10388684489395035	0.17436133374848425	-1.5377767272261078	0.01353758684163337	0.1368138093182453	-1.5548047545521397	0.021957032557174894	0.09273690441992845	-1.7549192760644792	0.022791817121677754	0.18751982752318852	-1.6282297828699632	1.4496319951772094	0.21832712406577268	-1.5537723519599451	1.7244701061868843	0.2558386876807762	-1.4974059720162376	1.579945225724557	0.2362786688101848	-1.6728913368880423	1.355244224294808	0.3667234032874601	-1.6677038301215896	1.059512912028149	0.3961951043369425	-1.5735214629563121	0.8624678550322812	0.45836755313492344	-1.66016334284918	1.3400337413641255	0.06406795775535039	-1.6559878876065306	1.0359783095081447	0.10848631549892129	-1.5430434633306551	0.8551701528964295	0.06927529732600692
176	5.866666666666666	-1.6468596490016048	0.8159107753384588	0.2536860565171534	-1.6474580425133383	0.806508263017224	0.3409983490406635	-1.6694519487671236	0.4746790578229969	0.30970810546719907	-1.7059672431331572	0.11683350322259291	0.31777904670698554	-1.5443086417408718	0.03408865004250607	0.33399738000468804	-1.574697928250843	0.02929065377763427	0.3888235674165288	-1.7491254913253862	0.049218674340095296	0.3200242023063853	-1.6405401224609781	0.7971247463077298	0.18575155201050775	-1.6594482493237603	0.4562244259794332	0.2016771168257691	-1.6920125230801177	0.10331449093916727	0.17131214515667748	-1.5374084808749202	0.013868882908651145	0.13629664719898985	-1.5568732772674843	0.0213375210291238	0.09097287803499401	-1.7549736194641612	0.02199409652510094	0.18798998581759951	-1.628247207086813	1.4495131246969315	0.21831205598401746	-1.552858336185497	1.7246705248608492	0.2550154638977853	-1.4969752625643422	1.5797325541854619	0.23551100125178775	-1.6729349495889378	1.3555797612002514	0.3662089585264446	-1.6670487481743994	1.0596648742184298	0.39623681299939423	-1.5735609071059655	0.8624809860938605	0.45832004928630565	-1.6603080159844958	1.338650297201482	0.07293398499827677	-1.6555116951936686	1.0356995594718645	0.10835697074858408	-1.5427389887473122	0.8551674300879542	0.06905524630406479
